<svg xmlns="http://www.w3.org/2000/svg" width="153" height="89" viewBox="0 0 153.1 89.4">
    <style>
        .a{fill:#8b5e3c}.b{fill:#00cc9d}.c{fill:#fff}.d{fill:#ff5235}.e{fill:#dee2d4}.f{fill:#a7a9ac}.g{fill:#27aae1}
    </style>
    <path d="M113.3 31.3c-0.3-1-0.7-2-1-3 -0.7-1.3-1.8-2.4-3.2-3.3 -3.9-2.3-8.8-1.3-11.5 2.2l-1.1 1.9 -2.3 3.9c0 0 0 0.1-0.1 0.1 -2 3.4-6.3 4.5-9.7 2.5 -3.4-2-4.5-6.3-2.5-9.7 0 0 0 0 0.1-0.1l3.8-6.4 1.4-2.4c2.4-5.5 0.5-12-4.8-15.1 -0.9-0.5-1.9-0.9-2.9-1.2 -0.9-0.2-1.8-0.3-2.7-0.4C59.6-1.8 42.2 6.1 32.9 21.7c-12.4 21-5.5 48.2 15.6 60.6 21 12.4 48.2 5.5 60.6-15.5C115.7 55.6 116.8 42.8 113.3 31.3z" class="a"/>
    <circle cx="67.2" cy="19.7" r="6.6" fill="#FBB040"/>
    <circle cx="45.8" cy="33.3" r="9.4" class="b"/>
    <circle cx="48.6" cy="67.1" r="5.7" class="c"/>
    <circle cx="70.1" cy="73.9" r="6.2" fill="#B18EFF"/>
    <circle cx="89.2" cy="48.2" r="7.2" class="d"/>
    <circle cx="74.6" cy="52.1" r="5.1" fill="#FF525D"/>
    <path d="M153.1 36.5c-1.3-0.1-2.6-0.1-4-0.1h-13.5v11.2h13.5c1.3 0 2.7-0.1 4-0.1V36.5z" fill="#C9813F"/>
    <path d="M153.1 36.5c-1.3-0.1-2.6-0.1-4-0.1h-13.5v5.6h17.5V36.5z" class="a"/>
    <path d="M107.7 46.8c4 0 7.6-2 9.5-5 -1.9-3-5.4-5-9.5-5s-7.6 2-9.5 5C100.1 44.8 103.6 46.8 107.7 46.8z" fill="#603913"/>
    <polygon points="135.7 36.3 135.7 47.6 112.8 45.8 112.8 38.1 " class="e"/>
    <polygon points="135.7 42 135.7 36.3 112.8 38.1 112.8 42 " fill="#ACBFAE"/>
    <rect x="135" y="36" width="2.2" height="11.8" class="e"/>
    <path d="M103.3 37.7c-2.1 0.9-3.9 2.3-5.1 4.1 1.2 1.8 3 3.3 5.1 4.1V37.7z" class="d"/>
    <path d="M42.7 47.2c0.2-3.6 4 2.8 4.1 3 0.6 1.1 1.2 2.1 2.1 3 1.6 1.6 4.5 2.3 6.7 2.2 5.7-0.2 6.4-4.5 6.4-9.4 0-1.4-2.9-0.8-2.9 0.3 0 3.3 0.4 7.9-4.4 7 -4.1-0.7-4.8-4.3-6.7-7.2 -2.1-3.1-7.9-2.7-8.1 1.4C39.7 48.8 42.6 48.3 42.7 47.2L42.7 47.2z" class="c"/>
    <rect x="27.7" y="48.2" transform="matrix(0.5318 0.8469 -0.8469 0.5318 57.5372 -3.9203)" width="9.3" height="3.9" class="f"/>
    <rect x="31.8" y="45" transform="matrix(0.5317 0.8469 -0.8469 0.5317 57.468 -5.9525)" width="4.6" height="8" class="f"/>
    <polygon points="9 72.9 1.6 61.1 29.7 46.2 34.6 54.1 " class="d"/>
    <rect x="-2.2" y="65.8" transform="matrix(0.5318 0.8469 -0.8469 0.5318 59.2561 27.2633)" width="14.3" height="2.8" fill="#A5263E"/>
    <polygon points="17.4 66.7 25.4 60.8 19.4 51.7 10.6 56.4 " class="c"/>
    <rect x="93.3" y="62.3" transform="matrix(0.5741 -0.8188 0.8188 0.5741 -10.8656 107.5027)" width="9.3" height="3.9" class="f"/>
    <rect x="93.9" y="59" transform="matrix(0.5742 -0.8187 0.8187 0.5742 -10.5779 105.5716)" width="4.6" height="8" class="f"/>
    <polygon points="128 76.8 120 88.2 95.4 68.1 100.7 60.5 " class="c"/>
    <rect x="117.2" y="81.4" transform="matrix(0.574 -0.8188 0.8188 0.574 -14.7925 137.0414)" width="14.3" height="2.8" fill="#006E7C"/>
    <polygon points="119 71.5 110.5 66.4 104.4 75.5 112.1 81.8 " class="g"/>
    <path d="M92.2 58.8c-3.7-2.4-8.9-3.6-10.7 1.7 -1.8 5.5 8.4 18.7-2.5 19 -1.7 0-2.2 2.3-0.2 2.2 4.1-0.1 9.1-1.2 8.9-6.2 -0.1-2.8-8.1-21.6 2.3-15C91.1 61.2 93.6 59.7 92.2 58.8L92.2 58.8z" class="g"/>
    <circle cx="26.3" cy="75.6" r="5.2" class="b"/>
    <circle cx="35.6" cy="84.9" r="2.9" class="b"/>
</svg>
