<svg xmlns="http://www.w3.org/2000/svg" width="500" height="195" viewBox="0 0 500 194.9">
    <style>
        .a{fill:#efefef}.b{fill:#edb985}.c{fill:#999}.d{fill:#b3b3b3}.e{fill:#fbdbba}.f{fill:#333}.g{fill:#424242}
    </style>
    <rect x="141.5" y="59.8" width="8.8" height="53" class="a"/>
    <path d="M160.6 64.2h-10.3v44.2h6.3c2.5 0 4.6 0.9 6.3 2.7 2.4 2.5 5.8 4 9.5 4h75.1V55.3h-4.4v-8.8l-40.3-8.1c-2.5-0.5-4.9 0-7 1.6L165.9 62.4C164.3 63.6 162.6 64.2 160.6 64.2z" class="b"/>
    <rect x="197.9" y="17.3" transform="matrix(-0.866 -0.5 0.5 -0.866 425.2214 308.7876)" width="112.2" height="160.2" class="a"/>
    <rect x="247.5" y="24.1" transform="matrix(-0.866 -0.5 0.5 -0.866 458.058 182.9246)" width="12" height="12" class="c"/>
    <rect x="263.7" y="46.7" transform="matrix(-0.866 -0.5 0.5 -0.866 523.7209 237.6494)" width="60.1" height="4" class="d"/>
    <rect x="259.7" y="53.6" transform="matrix(-0.866 -0.5 0.5 -0.866 512.7759 248.5931)" width="60.1" height="4" class="d"/>
    <rect x="230.5" y="65.8" transform="matrix(-0.866 -0.5 0.5 -0.866 470.3672 263.6425)" width="80.1" height="6" class="c"/>
    <rect x="224.9" y="76.3" transform="matrix(-0.866 -0.5 0.5 -0.866 455.3175 278.6906)" width="80.1" height="4" class="d"/>
    <rect x="220.9" y="83.3" transform="matrix(-0.866 -0.5 0.5 -0.866 444.3752 289.635)" width="80.1" height="4" class="d"/>
    <rect x="216.9" y="90.2" transform="matrix(-0.866 -0.5 0.5 -0.866 433.4287 300.581)" width="80.1" height="4" class="d"/>
    <rect x="212.9" y="97.2" transform="matrix(-0.866 -0.5 0.5 -0.866 422.4868 311.5235)" width="80.1" height="4" class="d"/>
    <rect x="208.9" y="104.1" transform="matrix(-0.866 -0.5 0.5 -0.866 411.5407 322.4674)" width="80.1" height="4" class="d"/>
    <rect x="205.7" y="108" transform="matrix(-0.866 -0.5 0.5 -0.866 392.39 325.2034)" width="68.1" height="4" class="d"/>
    <rect x="188.2" y="137.3" transform="matrix(-0.866 -0.5 0.5 -0.866 337.6681 368.9796)" width="60.1" height="4" class="d"/>
    <rect x="185.3" y="140.2" transform="matrix(-0.866 -0.5 0.5 -0.866 315.7798 368.9807)" width="44.1" height="4" class="d"/>
    <path d="M160.6 64.2h-10.3v26.5h18.8c14.1 0 26.6-7 34.2-17.7h26.5c4.9 0 8.8-4 8.8-8.8 0-4.9-4-8.8-8.8-8.8h-51.5c-2 0-3.7 0.6-5.3 1.8l-7.1 5.3C164.3 63.6 162.6 64.2 160.6 64.2z" class="e"/>
    <polygon points="70.7 121.6 0 121.6 0 50.9 70.7 50.9 141.5 50.9 141.5 121.6 " class="f"/>
    <rect x="413.2" y="105.3" width="86.8" height="70.7" class="f"/>
    <rect x="404.4" y="114.1" width="8.8" height="53" class="a"/>
    <polygon points="348.5 119.8 314.7 119.8 308.4 135 307.4 146.7 348.5 146.7 " class="b"/>
    <path d="M307.2 140.7h24c5 0 9-4 8.9-9 -0.1-4.8-4-8.7-8.8-8.7h-14.4l-14.1 6.6 -6.2 9.3c-4.5 6.1-9.4 7.2-15.9 5.4 -0.5-0.1-1-0.5-1.2-1 -0.2-0.5-0.2-1.1 0.1-1.6l12-19.9 22-18.7c1.7-1.4 3.6-1.8 5.7-2.1l32.8-4.8c1.6-0.2 3 0.3 4.4 1.2l32.7 20.1c1.4 0.8 2.8 1.2 4.4 1.2h10.9v39.8h-10.5c-1.6 0-3 0.4-4.4 1.2 -6 3.5-13 5.4-20.4 5.4 -7.4 0-14.4-2-20.4-5.4 -1.4-0.8-2.8-1.2-4.4-1.2h-37.1c-4.9 0-8.8-4-8.8-8.8S302.3 140.7 307.2 140.7z" class="e"/>
    <path d="M257.3 165.4c-1.4 1.3-2.2 2.4-1.9 2.9 0.4 0.6 2.6 0 3.4-0.2L257.3 165.4z" fill="#666"/>
    <path d="M258 166.7l1.5 2.7c5.7-0.8 14.8-5 28.1-12.7l86.5-49.9c2.9-1.7 3.9-5.5 2.3-8.4s-5.5-3.9-8.4-2.2l-86.5 49.9c-13.3 7.7-21.5 13.5-25.1 18L258 166.7z" fill="#973103"/>
    <path d="M372.5 100.6c-0.4-0.7-1.4-1-2.1-0.6l-35.9 20.7c-0.7 0.4-1 1.4-0.6 2.1 0.4 0.7 1.4 1 2.1 0.6l35.9-20.7C372.6 102.3 372.9 101.4 372.5 100.6z" fill="#DF673A"/>
    <path d="M307.2 140.7h14.2v17.7h-14.2c-4.9 0-8.8-4-8.8-8.8S302.3 140.7 307.2 140.7z" class="e"/>
    <rect x="413.2" y="105.3" width="86.8" height="35.4" class="g"/>
    <polygon points="70.7 86.3 0 86.3 0 50.9 70.7 50.9 141.5 50.9 141.5 86.3 " class="g"/>
</svg>
