<svg xmlns="http://www.w3.org/2000/svg" width="45" height="53" viewBox="0 0 45 52.7">
    <style>
        .a{fill:#369}.b{fill:#3cc}
    </style>
    <path d="M1.9 19.4c0.2-4.2 1.7-8.2 4.2-11.5 2.5 1.2 5.1 2.2 7.6 2.9 -1 2.9-1.6 5.8-1.7 8.6H1.9z" class="a"/>
    <path d="M7.7 6.1C10.9 2.8 15.2 0.6 19.8 0c-1.6 2-3.7 4.9-5.3 8.7C12.3 8.1 10 7.2 7.7 6.1z" class="a"/>
    <path d="M22.5 9.8c-1.8 0-3.7-0.2-5.7-0.6 2-4.3 4.5-7.5 5.8-8.9 1.3 1.4 3.8 4.6 5.8 8.9C26.2 9.6 24.4 9.8 22.5 9.8z" class="a"/>
    <path d="M30.5 8.8C28.8 4.9 26.6 1.8 25.1 0c4.7 0.6 9 2.8 12.3 6.3C35.2 7.4 32.8 8.2 30.5 8.8z" class="a"/>
    <path d="M37.5 34.7c-3.3 3.5-7.7 5.7-12.5 6.3 1.4-1.8 3.6-5 5.3-8.8C32.7 32.7 35.1 33.6 37.5 34.7z" class="a"/>
    <path d="M28.1 31.7c-1.9 4.2-4.4 7.4-5.6 8.9 -1.2-1.5-3.6-4.7-5.6-8.8 2-0.4 3.8-0.6 5.6-0.6C24.3 31.2 26.1 31.3 28.1 31.7z" class="a"/>
    <path d="M14.7 32.2c1.7 3.8 3.9 6.9 5.3 8.7 -4.7-0.6-9-2.7-12.3-6.1C10 33.7 12.4 32.9 14.7 32.2z" class="a"/>
    <path d="M14.2 19.4c0.1-2.7 0.7-5.4 1.7-8.1 2.3 0.5 4.5 0.7 6.6 0.7 2.2 0 4.4-0.2 6.6-0.7 1 2.7 1.6 5.4 1.7 8H14.2z" class="a"/>
    <path d="M30.8 21.6c-0.1 2.6-0.7 5.3-1.8 8 -2.2-0.4-4.4-0.6-6.5-0.6 -2 0-4.2 0.2-6.5 0.7 -1.1-2.8-1.7-5.5-1.8-8.1H30.8z" class="a"/>
    <path d="M43.1 21.6c-0.2 4.1-1.6 8-4.1 11.3 -2.6-1.2-5.2-2.2-7.8-2.8 1.1-2.9 1.7-5.7 1.8-8.5H43.1z" class="a"/>
    <path d="M1.9 21.6h10.1c0.1 2.8 0.8 5.7 1.9 8.6 -2.5 0.7-5.1 1.7-7.7 2.9C3.6 29.7 2.1 25.8 1.9 21.6z" class="a"/>
    <path d="M33 19.4c-0.1-2.8-0.7-5.7-1.7-8.5 2.6-0.6 5.1-1.6 7.6-2.8 2.5 3.3 3.9 7.2 4.1 11.3H33z" class="a"/>
    <rect x="21.5" y="41.8" width="2" height="3.8" class="b"/>
    <rect x="28.8" y="49.8" width="16.2" height="2" class="b"/>
    <rect y="49.8" width="16.2" height="2" class="b"/>
    <rect x="20.6" y="45.6" width="3.7" height="3.4" class="a"/>
    <rect x="16.2" y="49" width="12.7" height="3.7" class="a"/>
</svg>
