<svg xmlns="http://www.w3.org/2000/svg" viewBox="0 0 475 475">
    <style>
        .a{fill:#014ce4}.b{fill:#aa54ff}
    </style>
    <circle cx="237.5" cy="237.5" r="237.5" fill="#FFF"/>
    <path d="M405.4 286.9c0 6.1-5 11.1-11.1 11.1 -6.1 0-11.1-5-11.1-11.1s5-11.1 11.1-11.1C400.4 275.8 405.4 280.7 405.4 286.9" class="a"/>
    <path d="M391 306.4l-14.7 25.5c-1.4 2.5 0.4 5.6 3.2 5.6h29.4c2.9 0 4.7-3.1 3.2-5.6l-14.7-25.5C396 304 392.5 304 391 306.4" class="b"/>
    <path d="M319.9 248c-0.8 24.8-37.3 44.8-82.3 44.8 -45 0-81.5-20-82.3-44.8 0 0.3 0 0.6 0 0.8v47.5l73.1 32.9c5.9 2.7 12.7 2.7 18.6 0l73.1-32.9V248.8C319.9 248.5 319.9 248.3 319.9 248" class="a"/>
    <path d="M407.5 240.8l-104.8-47.2c3.4-9.1 6.5-18.7 9.2-28.7 12.7-47.6 12.7-92.5 2.2-121.3 -23.4 19.9-45.7 58.8-58.3 106.4 -1.8 6.9-3.4 13.7-4.7 20.4l-4.2-1.9c-5.9-2.7-12.7-2.7-18.6 0l-4.2 1.9c-1.3-6.7-2.9-13.5-4.7-20.4 -12.7-47.6-35-86.5-58.3-106.4 -10.4 28.9-10.4 73.7 2.2 121.3 2.7 10 5.8 19.6 9.2 28.7l-104.8 47.2c-6.9 3.1-6.9 12.9 0 16l87.6 39.4c0 0 0-48 0-48.3 0.8-24.8 37.4-44.8 82.4-44.8 45 0 81.6 20 82.4 44.8 0 0.3 0 48.3 0 48.3l87.6-39.4C414.4 253.7 414.4 243.9 407.5 240.8" fill="#01E7E4"/>
    <path d="M237.5 203.2c-45 0-81.5 20-82.3 44.8 0.8 24.8 37.4 44.8 82.4 44.8s81.6-20 82.4-44.8C319.1 223.2 282.5 203.2 237.5 203.2" fill="#001399"/>
    <path d="M228.2 329.2l-73.1-32.9v89.6c0-25.2 36.9-45.6 82.4-45.6s82.4 20.4 82.4 45.6v-89.6l-73.1 32.9C240.9 331.8 234.1 331.8 228.2 329.2" class="b"/>
    <path d="M319.9 385.9c0 25.2-36.9 45.6-82.4 45.6 -45.5 0-82.4-20.4-82.4-45.6s36.9-45.6 82.4-45.6C283 340.3 319.9 360.7 319.9 385.9" fill="#711CFF"/>
</svg>
