<svg xmlns="http://www.w3.org/2000/svg" width="62" height="31" viewBox="0 0 62.2 31.5">
    <style>
        .a{fill:#282726}.b{fill:#ee3725}
    </style>
    <path d="M57.4 4.8L29.3 31.5V16.5C29.3 7.4 36.7 0 45.7 0 50.3 0 54.4 1.8 57.4 4.8L57.4 4.8z" fill="#383737"/>
    <polygon points="1.7 25.2 29.3 25.2 29.3 31.5 1.7 31.5 1.7 25.2 " fill="#F5BA1B"/>
    <polygon points="3.6 31.5 1.7 31.5 1.7 25.2 3.6 25.2 3.6 31.5 " fill="#5D5F5F"/>
    <path d="M0.9 22.5L0.9 22.5c0.5 0 0.9 0.4 0.9 0.9v8.1H0v-8.1C0 22.9 0.4 22.5 0.9 22.5L0.9 22.5z" class="a"/>
    <polygon points="8.9 28.3 7.8 28.3 7.8 25.2 8.9 25.2 8.9 28.3 " class="b"/>
    <polygon points="13.1 28.3 12 28.3 12 25.2 13.1 25.2 13.1 28.3 " class="b"/>
    <polygon points="17.3 28.3 16.2 28.3 16.2 25.2 17.3 25.2 17.3 28.3 " class="b"/>
    <polygon points="21.5 28.3 20.4 28.3 20.4 25.2 21.5 25.2 21.5 28.3 " class="b"/>
    <polygon points="25.7 28.3 24.6 28.3 24.6 25.2 25.7 25.2 25.7 28.3 " class="b"/>
    <polygon points="29.3 28.3 28.8 28.3 28.8 25.2 29.3 25.2 29.3 28.3 " class="b"/>
    <path d="M62.2 16.5v13.7c0 0.8-0.6 1.4-1.4 1.4H29.3L57.4 4.8c0 0 0 0 0 0C60.4 7.8 62.2 11.9 62.2 16.5L62.2 16.5z" class="a"/>
    <path d="M57.4 15.7c0 6.4-5.2 11.6-11.6 11.6s-11.6-5.2-11.6-11.6c0-6.4 5.2-11.6 11.6-11.6S57.4 9.3 57.4 15.7L57.4 15.7z" fill="#FDBD16"/>
    <path d="M45.8 8.1c-4.2 0-7.7 3.4-7.7 7.7 0 4.2 3.5 7.7 7.7 7.7s7.7-3.4 7.7-7.7C53.4 11.5 50 8.1 45.8 8.1L45.8 8.1z" fill="#83D0DE"/>
    <path d="M45.8 23.4c-4.2 0-7.7-3.4-7.7-7.7 0-4.2 3.5-7.7 7.7-7.7s7.7 3.4 7.7 7.7C53.4 20 50 23.4 45.8 23.4L45.8 23.4zM45.8 6.1c-5.3 0-9.6 4.3-9.6 9.6 0 5.3 4.3 9.6 9.6 9.6 5.3 0 9.6-4.3 9.6-9.6C55.4 10.4 51.1 6.1 45.8 6.1L45.8 6.1z" class="b"/>
    <path d="M43.5 18.6c0.3 0.2 1.1 0.5 1.9 0.5 1.5 0 1.9-0.9 1.9-1.6 0-1.2-1.1-1.7-2.1-1.7H44.4V15h0.6c0.8 0 1.9-0.4 1.9-1.4 0-0.7-0.4-1.3-1.5-1.3 -0.7 0-1.3 0.3-1.7 0.6l-0.3-0.8c0.4-0.3 1.3-0.6 2.2-0.6 1.6 0 2.4 1 2.4 2 0 0.9-0.5 1.6-1.5 2v0c1 0.2 1.9 1 1.9 2.1 0 1.3-1 2.5-3 2.5 -0.9 0-1.7-0.3-2.2-0.6L43.5 18.6 43.5 18.6z" class="a"/>
</svg>
