<svg xmlns="http://www.w3.org/2000/svg" width="195" height="169" viewBox="0 0 195.4 168.9">
  <style>
    .a{fill:#fc611f}.b{fill:#f5f5f5}.c{fill:#f7d8bf}.d{fill:#2c5871}
  </style>
  <path d="M129.8 76.3c-11.2-12-17.4-21-17-32.2s3.1-14.1 7.1-17.6 5.6-8.6 1.9-12.3c-3.2-3.2-8.3-2.9-11.2 0.2l0-0.1c1.6-5-2.1-10-7.3-10 -5.2 0-8.9 5.1-7.4 10l0 0c-2.9-3.1-7.9-3.4-11.1-0.2 -3.7 3.7-1.7 9.4 6.8 14.6 0 0 5 2.5 7.5 9.5 0 27.8-11.7 24.8-24.2 39.5 -12 14.2-9.2 33.5 2.4 47.4 11.4 13.6 42.7 11.5 53.2 0C143 111.3 141.4 88.7 129.8 76.3z" fill="#FDC00F"/>
  <path d="M107.4 91.9l-1.6 0V78.5h1.3c3.3 0 5.9 2.7 5.9 5.9h5.5c0-6.3-5.1-11.4-11.4-11.4h-1.3v-4.1h-5.4v4.1c-6.7 0-12.2 5.5-12.2 12.3 0 3.3 1.3 6.3 3.6 8.6 2.3 2.3 5.3 3.5 8.6 3.5v13.4h-0.8c-3.3 0-5.9-2.7-5.9-5.9h-5.4c0 6.3 5.1 11.4 11.4 11.4h0.8v4.1h5.5v-4.1h0.4c6.8 0 12.3-5.5 12.3-12.2v-1.2c0-2.9-1.1-5.7-3.2-7.8C113.1 93 110.3 91.9 107.4 91.9zM95.6 90.1c-1.3-1.3-2-3-2-4.8 0-3.7 3-6.8 6.7-6.8v13.5C98.5 92 96.8 91.3 95.6 90.1zM112.9 104.1c0 3.8-3 6.8-6.8 6.8h-0.4V97.4l1.7 0c1.5 0 2.9 0.5 3.9 1.6 1 1 1.6 2.4 1.6 3.9V104.1z" class="a"/>
  <path d="M99.3 29.6c-1.3 0-2.3-1-2.3-2.3 0-1.3 1.1-2.3 2.3-2.3 1.3 0 2.3 1.1 2.3 2.3C101.6 28.6 100.6 29.6 99.3 29.6z" class="b"/>
  <rect x="73.8" y="42.4" transform="matrix(-0.003380217 1 -1 -0.003380217 129.3615 -35.7013)" width="17.3" height="8.5" class="c"/>
  <path d="M111.9 33.6c1.9-1.4 2.6-3.1 2.2-5.5 -0.5-2.9-3.1-4.8-6.3-4.5l-13.4 2.1c-1.6 1.6-6.7 7.1-5 8.7 1.7 1.7 4.3 1.8 5.9 0.2L111.9 33.6z" class="c"/>
  <path d="M113.7 61.5l4.2 0c2 0 3.7-1.7 3.7-3.9 0-1.7-1-3.2-2.5-3.7l0-0.4c1.5-0.5 2.5-2 2.5-3.7 0-1.7-1-3.2-2.5-3.7l0-0.4c1.4-0.5 2.4-2 2.4-3.7 0-1.7-1-3.1-2.4-3.7v-0.4c1.5-0.5 2.5-2 2.5-3.7 0-2.2-1.6-3.9-3.6-3.9l-11.1 0c0 0 0 0-0.1 0l-14.2 0c-3.5 0-6.3 2.8-6.4 6.3l-0.1 18.6c0 3.5 2.8 6.3 6.3 6.4l20.4 0.1C113.2 61.6 113.4 61.5 113.7 61.5z" class="c"/>
  <path d="M107.3 36c0-1.2-0.2-2.3-0.6-3.4l-8.2 0 0-6.8h0v-0.2c-0.6-0.1-1.2-0.2-1.8-0.2 -5.8 0-10.6 4.7-10.6 10.5 0 5.8 4.7 10.6 10.5 10.6C102.6 46.6 107.3 41.9 107.3 36z" class="c"/>
  <polygon points="67.8 36.2 67.8 59.3 83.3 59.3 83.3 36.3 " class="b"/>
  <polygon points="11.2 33.9 17.9 63.9 77.2 64 77.3 33.9 " class="a"/>
  <circle cx="80.5" cy="39.1" r="1.7" class="b"/>
  <path d="M194.4 160.6c-0.9 4.8-5.8 8.3-11.5 8.3H49.5c-5.7 0-10.6-3.5-11.5-8.3l-1-5.1h158.5L194.4 160.6z" class="d"/>
  <path d="M33.4 155.8c-4.4-0.2-8.3-4.4-9.4-10L0.3 14.5C-0.8 8.8 1.5 3.5 5.5 1.8L9.8 0l28.3 155.9L33.4 155.8z" class="d"/>
  <rect x="46.8" y="158.5" width="5.7" height="5.4" class="b"/>
  <rect x="54.8" y="158.5" width="5.7" height="5.4" class="b"/>
</svg>
