<svg xmlns="http://www.w3.org/2000/svg" width="40" height="53" viewBox="0 0 40.1 52.9">
    <path d="M40.1 50.8c0 1.2-.9 2.1-2.1 2.1H2.1c-1.2 0-2.1-1-2.1-2.1V22.6c0-1.2.9-2.1 2.1-2.1H38c1.2 0 2.1.9 2.1 2.1v28.2z" fill="#369"/>
    <path d="M33.4 17.8H29v-8c0-1.6-.9-3-2.5-4.2-1.7-1.2-4-1.9-6.5-1.9s-4.8.7-6.5 1.9C11.9 6.7 11 8.2 11 9.8v8H6.7v-8c0-2.7 1.4-5.2 4.1-7.1C13.3 1 16.6 0 20.1 0c3.5 0 6.8 1 9.3 2.8 2.6 1.9 4.1 4.4 4.1 7.1v7.9h-.1z" fill="#666"/>
    <path d="M20.1 39.6c-3.3 0-6-3.2-6-7.2v-4.5c0-1.5 1.2-2.7 2.7-2.7h6.6c1.5 0 2.7 1.2 2.7 2.7v4.5c0 4-2.7 7.2-6 7.2z" fill="#FC9"/>
    <path d="M21.9 28.3c1.2 1.6 3.2 1.8 4.2 1.4.8-3.5-1.4-6.4-4.6-5.2-4-1.4-8.4.3-7.5 5 1.9 1.1 6.8 1 7.9-1.2z" fill="#333"/>
    <path d="M23.3 40.7h-6.4c-4.7 1.2-8.2 4.8-8.2 6.7 0 2.6 22.8 2.6 22.8 0 0-1.9-3.5-5.5-8.2-6.7z" fill="#FFF"/>
    <path d="M23.3 40.7l-3.2 5.8-3.2-5.8c-4.7 1.2-8.2 4.8-8.2 6.7 0 2.6 22.8 2.6 22.8 0 0-1.9-3.5-5.5-8.2-6.7z" fill="#FC3"/>
    <path d="M20.6 42c.5-.2.9-.8.9-1.2 0-.6-2.7-.6-2.7 0 0 .4.4 1 .9 1.2-.5.3-.9.8-.9.8l1.4 2.4 1.4-2.4c-.2 0-.5-.6-1-.8z" fill="#F63"/>
</svg>