<!DOCTYPE svg PUBLIC "-//W3C//DTD SVG 1.1//EN" "http://www.w3.org/Graphics/SVG/1.1/DTD/svg11.dtd">
<svg version="1.1" id="Layer_2" xmlns="http://www.w3.org/2000/svg" xmlns:xlink="http://www.w3.org/1999/xlink" x="0px" y="0px" viewBox="0 0 475 475" style="enable-background:new 0 0 475 475;" xml:space="preserve">
<g fill-opacity="0.3">
	<circle style="fill:#FFFFFF;" cx="237.5" cy="237.5" r="237.5"/>
	<g>
		<path style="fill:#014CE4;" d="M405.36,286.88c0,6.14-4.98,11.11-11.11,11.11c-6.14,0-11.11-4.97-11.11-11.11
			s4.97-11.11,11.11-11.11C400.39,275.76,405.36,280.74,405.36,286.88"/>
		<path style="fill:#AA54FF;" d="M391.03,306.43l-14.7,25.46c-1.43,2.48,0.36,5.58,3.22,5.58h29.39c2.86,0,4.65-3.1,3.22-5.58
			l-14.7-25.46C396.04,303.95,392.46,303.95,391.03,306.43"/>
		<path style="fill:#014CE4;" d="M319.85,247.97c-0.8,24.81-37.35,44.79-82.35,44.79c-45,0-81.55-19.98-82.35-44.79
			c-0.01,0.28-0.04,0.55-0.04,0.83v47.46l73.1,32.91c5.91,2.66,12.67,2.66,18.57,0l73.1-32.91V248.8
			C319.89,248.52,319.86,248.25,319.85,247.97"/>
		<path style="fill:#01E7E4;" d="M407.49,240.78l-104.83-47.2c3.43-9.14,6.53-18.73,9.19-28.73c12.66-47.61,12.66-92.48,2.23-121.34
			c-23.39,19.87-45.69,58.8-58.35,106.41c-1.83,6.88-3.39,13.69-4.7,20.42l-4.25-1.91c-5.91-2.66-12.67-2.66-18.57,0l-4.25,1.91
			c-1.31-6.72-2.87-13.54-4.7-20.42c-12.66-47.61-34.96-86.55-58.35-106.41c-10.43,28.86-10.44,73.73,2.23,121.34
			c2.66,10,5.76,19.6,9.19,28.73l-104.82,47.2c-6.91,3.11-6.91,12.92,0,16.03l87.6,39.44c0,0,0.03-48,0.04-48.28
			c0.8-24.81,37.35-44.79,82.35-44.79c45,0,81.55,19.98,82.35,44.79c0.01,0.28,0.04,48.28,0.04,48.28l87.6-39.44
			C414.4,253.7,414.4,243.89,407.49,240.78"/>
		<path style="fill:#001399;" d="M237.5,203.18c-45,0-81.55,19.98-82.35,44.79c0.8,24.81,37.35,44.79,82.35,44.79
			s81.55-19.98,82.35-44.79C319.05,223.16,282.5,203.18,237.5,203.18"/>
		<path style="fill:#AA54FF;" d="M228.21,329.16l-73.1-32.91v89.63c0-25.19,36.89-45.61,82.39-45.61s82.39,20.42,82.39,45.61v-89.63
			l-73.1,32.91C240.88,331.82,234.12,331.82,228.21,329.16"/>
		<path style="fill:#711CFF;" d="M319.89,385.88c0,25.19-36.89,45.61-82.39,45.61c-45.5,0-82.39-20.42-82.39-45.61
			s36.89-45.61,82.39-45.61C283,340.26,319.89,360.68,319.89,385.88"/>
	</g>
</g>
</svg>