<svg class="icon question" width="100%" height="100%" viewBox="0 0 32 32" xmlns="http://www.w3.org/2000/svg" xmlnsXlink="http://www.w3.org/1999/xlink">
  <path fill-opacity='.1' d="M30.667 16c0-4.049-1.643-7.719-4.296-10.371s-6.321-4.296-10.371-4.296-7.719 1.643-10.371 4.296-4.296 6.321-4.296 10.371 1.643 7.719 4.296 10.371 6.321 4.296 10.371 4.296 7.719-1.643 10.371-4.296 4.296-6.321 4.296-10.371zM28 16c0 3.315-1.341 6.312-3.515 8.485s-5.171 3.515-8.485 3.515-6.312-1.341-8.485-3.515-3.515-5.171-3.515-8.485 1.341-6.312 3.515-8.485 5.171-3.515 8.485-3.515 6.312 1.341 8.485 3.515 3.515 5.171 3.515 8.485zM13.377 12.443c0.244-0.695 0.745-1.224 1.363-1.52s1.343-0.356 2.037-0.111c0.611 0.215 1.092 0.627 1.4 1.145 0.244 0.409 0.38 0.887 0.381 1.383 0 0.207-0.052 0.412-0.156 0.619-0.107 0.213-0.271 0.433-0.491 0.653-0.945 0.945-2.441 1.456-2.441 1.456-0.699 0.233-1.076 0.988-0.843 1.687s0.988 1.076 1.687 0.843c0 0 2.059-0.675 3.484-2.1 0.372-0.372 0.727-0.819 0.991-1.347 0.267-0.533 0.437-1.144 0.437-1.825-0.005-0.975-0.272-1.916-0.756-2.732-0.617-1.037-1.587-1.869-2.807-2.299-1.389-0.488-2.847-0.367-4.076 0.223s-2.237 1.651-2.725 3.040c-0.245 0.695 0.12 1.456 0.815 1.7s1.456-0.121 1.7-0.815zM17.333 22.667c0-0.736-0.597-1.333-1.333-1.333s-1.333 0.597-1.333 1.333 0.597 1.333 1.333 1.333 1.333-0.597 1.333-1.333z"></path>
</svg>